# xmcd
#
# Track frame offsets:
#	150
#	8030
#	25860
#	37837
#	44120
#	59420
#	73882
#	85854
#	97910
#	109642
#
# Disc length: 1605 seconds
# Revision: 0
# Processed by: cddbd v1.5.2PL0 Copyright (c) Steve Scherf et al.
# Submitted via: dBpowerAMP V12.0
#
DISCID=7a06430a
DTITLE=Various Artist - The Devil You Say!
DYEAR=1999
DGENRE=Country
TTITLE0=Jana Jae and The Buckaroos - Black Mountain Rag
TTITLE1=Jana Jae and Tweed - Bob Wills Medley
TTITLE2=Jana Jae and The Buckaroos - Orange Blossom Very Special
TTITLE3=Jana Jae and The Buckaroos - Hot Canary
TTITLE4=Jana Jae and The Buckaroos - Don't Rock The Bow
TTITLE5=Jana Jae and The Nashville Superpickers - The Devil Went On To Tulsa
TTITLE6=Jana Jae and The Nashville Superpickers - Cotton-Eyed Joe
TTITLE7=Jana Jae and The Buckaroos - Today I Started Loving You Again
TTITLE8=Jana Jae and The Buckaroos - Sally Goodin'
TTITLE9=Jana Jae and The Buckaroos - Orange Blossom Special
EXTD=
EXTT0=
EXTT1=
EXTT2=
EXTT3=
EXTT4=
EXTT5=
EXTT6=
EXTT7=
EXTT8=
EXTT9=
PLAYORDER=
